<?xml version="1.0" encoding="UTF-8"?>
<svg version="1.1" xmlns="http://www.w3.org/2000/svg" width="577" height="433">
<path d="M0 0 C1.10923828 0.02255859 2.21847656 0.04511719 3.36132812 0.06835938 C23.0329758 0.69996511 39.43255932 7.52948413 53.1875 21.6875 C64.90619918 36.04172992 69.19797537 51.70979423 69.5390625 69.953125 C69.56275909 71.09871384 69.58645569 72.24430267 69.61087036 73.42460632 C69.68575548 77.26214237 69.75069971 81.09973156 69.8125 84.9375 C69.82340164 85.59756672 69.83430328 86.25763344 69.84553528 86.93770218 C70.25432807 111.92504317 70.21273131 136.90611622 69.96300507 161.89500427 C69.93763139 164.61093624 69.91748605 167.32686152 69.89874268 170.04284668 C69.86785449 174.3708084 69.82158033 178.69835609 69.76388168 183.02604103 C69.74461578 184.61841711 69.72987836 186.21085623 69.72027969 187.80331993 C69.63423717 200.86758898 68.88170899 214.28152175 62.5 226 C62.15042236 226.66386719 61.80084473 227.32773437 61.44067383 228.01171875 C53.17573653 243.24840207 39.92271768 253.49123616 23.6875 259.5 C14.20618828 262.27632437 4.04739728 261.83271254 -5.73828125 261.81689453 C-7.10134935 261.81825296 -8.46441708 261.82003537 -9.82748413 261.82220459 C-13.49688509 261.82672637 -17.16625763 261.82501118 -20.83565903 261.8218255 C-24.69553447 261.81927455 -28.55540765 261.82164701 -32.4152832 261.82321167 C-38.89437288 261.82502543 -45.37345112 261.82264794 -51.85253906 261.81787109 C-59.31827238 261.81243001 -66.78397838 261.81419323 -74.24971104 261.8196975 C-80.68657189 261.8242513 -87.12342457 261.82486811 -93.56028652 261.82225883 C-97.39294825 261.8207085 -101.22559718 261.8204679 -105.05825806 261.82379532 C-108.66329843 261.82670711 -112.26830395 261.82463822 -115.87334061 261.81890106 C-117.80938928 261.8169716 -119.74544093 261.81989905 -121.68148804 261.82302856 C-142.2390927 261.77378584 -158.1959648 257.30638376 -173.5390625 243.00390625 C-181.8125 234.57409794 -181.8125 234.57409794 -181.8125 230.6875 C-182.4725 230.6875 -183.1325 230.6875 -183.8125 230.6875 C-193.90152635 211.55313968 -193.12013467 191.81386803 -193.08115101 170.66792917 C-193.07602081 167.00573857 -193.08080186 163.34355706 -193.08392334 159.68136597 C-193.08754375 153.53381525 -193.08281581 147.38631287 -193.07324219 141.23876953 C-193.0623711 134.17748448 -193.06588125 127.11631509 -193.076895 120.05503285 C-193.08603485 113.94580045 -193.08722045 107.83660242 -193.08201766 101.72736537 C-193.07893319 98.09911961 -193.07838943 94.47092779 -193.08509064 90.8426857 C-193.14959635 50.32831611 -193.14959635 50.32831611 -187.5625 39.125 C-187.25530029 38.46717529 -186.94810059 37.80935059 -186.6315918 37.1315918 C-184.23455055 32.15663548 -181.4233072 27.8404123 -177.8125 23.6875 C-177.18472656 22.87410156 -176.55695313 22.06070313 -175.91015625 21.22265625 C-166.310489 9.62082376 -151.54156918 2.73336866 -136.8125 0.6875 C-129.71242706 0.11804143 -122.57501153 0.19794763 -115.45703125 0.17578125 C-113.38554362 0.15887594 -111.31406587 0.14071821 -109.24259949 0.12138367 C-103.80623551 0.07410187 -98.36991128 0.04420133 -92.93341064 0.01794434 C-87.48481652 -0.01160804 -82.03637461 -0.05847013 -76.58789062 -0.10351562 C-17.73664471 -0.57214983 -17.73664471 -0.57214983 0 0 Z M-96.8125 60.6875 C-97.59625 61.10644531 -98.38 61.52539062 -99.1875 61.95703125 C-116.74009289 71.91264253 -127.72520505 85.59019537 -135.8125 103.6875 C-136.18117188 104.49832031 -136.54984375 105.30914062 -136.9296875 106.14453125 C-143.37636971 124.71439902 -141.71717968 145.6068028 -133.58203125 163.375 C-132.75011002 165.01324489 -131.90546324 166.6451035 -131.046875 168.26953125 C-127.58590593 175.04908775 -124.73973091 181.86536651 -124.63671875 189.53125 C-124.61287109 190.44777344 -124.58902344 191.36429688 -124.56445312 192.30859375 C-124.52148945 194.2276381 -124.49023595 196.14698041 -124.47070312 198.06640625 C-124.44298828 198.98292969 -124.41527344 199.89945313 -124.38671875 200.84375 C-124.37213623 201.67712891 -124.35755371 202.51050781 -124.3425293 203.36914062 C-123.61172146 206.56570959 -122.36462532 207.65244002 -119.8125 209.6875 C-116.8105135 210.2856262 -116.8105135 210.2856262 -113.43017578 210.18920898 C-112.13427521 210.19858994 -110.83837463 210.20797089 -109.50320435 210.21763611 C-108.08806711 210.20714673 -106.67293617 210.19577624 -105.2578125 210.18359375 C-103.79491097 210.18374892 -102.33200903 210.1852408 -100.86911011 210.18800354 C-97.79732149 210.18938852 -94.7259991 210.17682892 -91.65429688 210.15405273 C-87.75669905 210.12591815 -83.85989026 210.12833497 -79.9622364 210.14114285 C-76.9351657 210.14817851 -73.90827008 210.14021807 -70.88122177 210.12788582 C-69.44701693 210.12342945 -68.01279285 210.12298244 -66.57858658 210.12695122 C-48.0582467 210.15417108 -31.58237622 205.93971153 -16.25 195.375 C-15.69892578 195.00955078 -15.14785156 194.64410156 -14.58007812 194.26757812 C-10.59734236 191.53210481 -7.81214082 188.44555892 -4.8125 184.6875 C-3.966875 183.85476563 -3.12125 183.02203125 -2.25 182.1640625 C10.95344169 168.7490272 17.12150398 149.47530812 17.625 130.9375 C16.79923575 109.24742569 7.85070411 88.70384612 -7.8125 73.6875 C-25.66016355 58.46368898 -45.93227319 51.00032508 -69.38916016 52.45117188 C-78.89164441 53.37786992 -88.408532 56.15126727 -96.8125 60.6875 Z " fill="#6D3CEC" transform="translate(348.8125,83.3125)"/>
<path d="M0 0 C0.98120464 3.05263664 0.98120464 4.94736336 0 8 C0.33 8 0.66 8 1 8 C1.042721 9.66611905 1.04063832 11.33382885 1 13 C0.67 13.33 0.34 13.66 0 14 C-0.25704126 16.5370254 -0.43043699 19.0404976 -0.5546875 21.5859375 C-0.59673309 22.4457724 -0.63877869 23.3056073 -0.68209839 24.1914978 C-1.2969864 38.88045487 -1.14949982 53.59813453 -1.13037109 68.296875 C-1.12459466 72.78237717 -1.12801635 77.26782053 -1.13394356 81.75332069 C-1.13754435 85.22588553 -1.1364142 88.69843619 -1.13381577 92.17100143 C-1.13314925 93.82725405 -1.1339653 95.48350795 -1.13629532 97.13975906 C-1.13882242 99.43386563 -1.13498414 101.7278735 -1.12939453 104.02197266 C-1.12859894 105.32510406 -1.12780334 106.62823547 -1.12698364 107.97085571 C-1.2103682 110.9203962 -1.2103682 110.9203962 0 113 C0.08478461 114.50537133 0.10720179 116.01448998 0.09765625 117.5222168 C0.09435303 118.46046799 0.0910498 119.39871918 0.08764648 120.36540222 C0.07934814 121.38306168 0.0710498 122.40072113 0.0625 123.44921875 C0.05871338 124.4951973 0.05492676 125.54117584 0.05102539 126.61885071 C0.03465546 131.10394021 0.00665266 135.58893949 -0.02050781 140.07397461 C-0.03864639 143.344885 -0.05071255 146.61578027 -0.0625 149.88671875 C-0.07079834 150.89425705 -0.07909668 151.90179535 -0.08764648 152.93986511 C-0.1054335 158.07697629 0.10497079 162.93859222 1 168 C1.66 168 2.32 168 3 168 C3 170.31 3 172.62 3 175 C2.01 175.33 1.02 175.66 0 176 C-6.37339663 161.41692122 -4.29731906 143.53086085 -4.26865101 127.98042917 C-4.26352081 124.31823857 -4.26830186 120.65605706 -4.27142334 116.99386597 C-4.27504375 110.84631525 -4.27031581 104.69881287 -4.26074219 98.55126953 C-4.2498711 91.48998448 -4.25338125 84.42881509 -4.264395 77.36753285 C-4.27353485 71.25830045 -4.27472045 65.14910242 -4.26951766 59.03986537 C-4.26643319 55.41161961 -4.26588943 51.78342779 -4.27259064 48.1551857 C-4.33379394 9.63003742 -4.33379394 9.63003742 0 0 Z " fill="#C7BADF" transform="translate(160,126)"/>
<path d="M0 0 C3 4 3 4 3 7 C3.99 7.33 4.98 7.66 6 8 C8.16694724 16.35992967 8.27275288 24.49819585 8.22705078 33.08837891 C8.2264856 34.58737175 8.22680532 36.08636514 8.22793579 37.58535767 C8.22850613 41.62600833 8.21680392 45.66653858 8.20278788 49.70716143 C8.19022691 53.94054067 8.18910581 58.17392312 8.18673706 62.40731812 C8.18053799 70.41102012 8.16414859 78.41466703 8.14403808 86.41834486 C8.12162995 95.53568695 8.11067333 104.65303176 8.10064721 113.77039456 C8.07978087 132.51362752 8.04463568 151.25680932 8 170 C7.67 170 7.34 170 7 170 C6.99365209 168.86636741 6.99365209 168.86636741 6.98717594 167.70983315 C6.88398078 149.34130769 6.77535988 130.97282172 6.66066074 112.6043644 C6.60532524 103.721608 6.55184272 94.8388476 6.50268555 85.95605469 C6.45984771 78.21601848 6.41357074 70.47601188 6.36312145 62.7360214 C6.33651728 58.6357773 6.31166413 54.53553909 6.29092598 50.43526077 C6.27136884 46.57921414 6.24722785 42.72322389 6.21950912 38.86722755 C6.21013379 37.4490276 6.20246025 36.03081527 6.19658089 34.61259651 C6.18832801 32.68210547 6.1734623 30.75164601 6.15821838 28.82119751 C6.15176583 27.73901255 6.14531328 26.65682758 6.1386652 25.54184914 C6.16943948 23.00735523 6.16943948 23.00735523 5 21 C4.960008 19.00039988 4.95653201 16.99952758 5 15 C4.01 15 3.02 15 2 15 C2 13.68 2 12.36 2 11 C1.01 11.495 1.01 11.495 0 12 C0 8.04 0 4.08 0 0 Z " fill="#512CC7" transform="translate(408,120)"/>
<path d="M0 0 C0.76763672 0.04833984 1.53527344 0.09667969 2.32617188 0.14648438 C5.54491973 0.36817669 8.36494629 0.66331543 11.4375 1.6875 C13.78067987 1.98348062 16.12452983 2.19312083 18.4765625 2.40625 C20.4375 2.6875 20.4375 2.6875 21.4375 3.6875 C23.4962768 3.96703219 25.55478432 4.13484351 27.625 4.30859375 C28.223125 4.43363281 28.82125 4.55867187 29.4375 4.6875 C29.9325 5.6775 29.9325 5.6775 30.4375 6.6875 C33.46684491 7.34522428 33.46684491 7.34522428 36.4375 7.6875 C36.1075 8.6775 35.7775 9.6675 35.4375 10.6875 C38.0775 12.3375 40.7175 13.9875 43.4375 15.6875 C42.7775 16.0175 42.1175 16.3475 41.4375 16.6875 C39.01277967 15.51746662 36.67295761 14.28853215 34.3125 13 C18.16331913 4.65274217 0.19953957 1.73297574 -17.63085938 6.25097656 C-19.97303281 6.7802746 -22.17054904 6.84181942 -24.5625 6.6875 C-21.91762395 4.9242493 -20.09505516 4.10906855 -17.125 3.1875 C-13.83713459 2.17055363 -13.83713459 2.17055363 -10.8125 0.57421875 C-7.23677495 -0.83496456 -3.77974848 -0.29663849 0 0 Z " fill="#9B80E1" transform="translate(287.5625,132.3125)"/>
<path d="M0 0 C0.99 0.66 1.98 1.32 3 2 C2.75 4.3125 2.75 4.3125 2 7 C1.319375 7.45375 0.63875 7.9075 -0.0625 8.375 C-0.701875 8.91125 -1.34125 9.4475 -2 10 C-2.33380814 13.62563814 -2.33380814 13.62563814 -2 17 C-2.66 17 -3.32 17 -4 17 C-4 17.66 -4 18.32 -4 19 C-3.34 19 -2.68 19 -2 19 C-2 19.66 -2 20.32 -2 21 C-2.7425 21.2475 -3.485 21.495 -4.25 21.75 C-7.26049464 23.11840665 -8.71263803 24.64332403 -11 27 C-12.423125 27.8971875 -12.423125 27.8971875 -13.875 28.8125 C-16.60019829 30.72013881 -17.9578076 32.07515619 -19.9375 34.625 C-22.93687749 38.34040926 -25.35550694 39.16399125 -30 40 C-25.375 35.125 -25.375 35.125 -22 34 C-21.67 33.01 -21.34 32.02 -21 31 C-19.0625 28.8125 -19.0625 28.8125 -17 27 C-16.34 27 -15.68 27 -15 27 C-14.74863281 26.45472656 -14.49726563 25.90945313 -14.23828125 25.34765625 C-12.75980979 22.5446236 -10.99856374 20.03809057 -9.1875 17.4375 C-5.42572217 11.86677982 -2.54318368 6.21123706 0 0 Z " fill="#7D5EDB" transform="translate(361,240)"/>
<path d="M0 0 C9.84796347 5.44454133 17.55113473 16.33987097 21 27 C20.67 27.99 20.34 28.98 20 30 C17.44971017 28.72485508 17.06918289 27.59658703 16 25 C16 24.01 16 23.02 16 22 C14.865625 21.731875 13.73125 21.46375 12.5625 21.1875 C11.386875 20.795625 10.21125 20.40375 9 20 C7.95550089 16.86650268 8.06576355 16.01031744 9 13 C8.4225 13.2475 7.845 13.495 7.25 13.75 C5 14 5 14 2.75 12.25 C1 10 1 10 1 7 C1.66 6.67 2.32 6.34 3 6 C2.67 5.01 2.34 4.02 2 3 C1.34 2.67 0.68 2.34 0 2 C0 1.34 0 0.68 0 0 Z " fill="#512BD5" transform="translate(393,98)"/>
<path d="M0 0 C1.67013418 0.65793165 3.3357865 1.32723284 5 2 C6.093125 2.33 7.18625 2.66 8.3125 3 C12.87040717 4.91491942 15.32612605 8.75831341 18.203125 12.625 C20.59318693 15.78403838 22.69475766 17.7965051 26 20 C26.99 20 27.98 20 29 20 C28.67 21.65 28.34 23.3 28 25 C28.66 25 29.32 25 30 25 C30 25.66 30 26.32 30 27 C29.34 27 28.68 27 28 27 C28 28.32 28 29.64 28 31 C28.66 31.33 29.32 31.66 30 32 C30 33.98 30 35.96 30 38 C27.45589793 35.45589793 26.26159848 32.52251907 24.75 29.3125 C22.09946065 23.80791153 19.16077831 19.4652255 15 15 C15 14.34 15 13.68 15 13 C14.01 12.67 13.02 12.34 12 12 C11.443125 11.278125 10.88625 10.55625 10.3125 9.8125 C7.71929974 6.65860779 4.92261346 4.58024457 1.609375 2.234375 C1.07828125 1.82703125 0.5471875 1.4196875 0 1 C0 0.67 0 0.34 0 0 Z " fill="#5B36D4" transform="translate(331,149)"/>
<path d="M0 0 C0.33 0 0.66 0 1 0 C0.97679687 1.00417969 0.95359375 2.00835937 0.9296875 3.04296875 C0.64321504 20.68923798 3.69142425 36.29375547 12 52 C15.18292683 58.45121951 15.18292683 58.45121951 14 62 C13.34 60.68 12.68 59.36 12 58 C11.34 58 10.68 58 10 58 C9.731875 57.113125 9.46375 56.22625 9.1875 55.3125 C8.17083623 52.09202722 8.17083623 52.09202722 6.62109375 49.8359375 C4.51187977 46.14608365 3.23080931 42.3288296 1.875 38.3125 C0.16501237 33.06344689 0.16501237 33.06344689 -2 28 C-2.02815415 26.14712788 -1.98822622 24.29300758 -1.9140625 22.44140625 C-1.84832031 20.77948242 -1.84832031 20.77948242 -1.78125 19.08398438 C-1.7296875 17.92189453 -1.678125 16.75980469 -1.625 15.5625 C-1.58117187 14.40427734 -1.53734375 13.24605469 -1.4921875 12.05273438 C-1.12973941 3.38921823 -1.12973941 3.38921823 0 0 Z " fill="#9679DF" transform="translate(208,202)"/>
<path d="M0 0 C1.88624671 3.21654702 2.29047742 5.71432261 2.4140625 9.421875 C2.45273438 10.44667969 2.49140625 11.47148437 2.53125 12.52734375 C2.57765625 14.12255859 2.57765625 14.12255859 2.625 15.75 C2.66367188 16.82894531 2.70234375 17.90789062 2.7421875 19.01953125 C2.83634631 21.67951775 2.92197387 24.3394994 3 27 C6.35635282 28.11878427 8.95288354 28.15885588 12.4909668 28.20532227 C13.1448941 28.21522186 13.79882141 28.22512146 14.4725647 28.23532104 C16.6314127 28.26687783 18.79028271 28.29167032 20.94921875 28.31640625 C22.44709338 28.33698081 23.94496228 28.35797742 25.44282532 28.37937927 C29.3833857 28.43454809 33.32399803 28.48398021 37.26464844 28.53222656 C41.28650531 28.58247951 45.30828684 28.63814577 49.33007812 28.69335938 C57.21998836 28.80087746 65.10996166 28.90233648 73 29 C73 29.33 73 29.66 73 30 C64.20329085 30.20024046 55.40643696 30.38395533 46.60895157 30.54658794 C42.52390972 30.6226243 38.43914678 30.70434617 34.35449219 30.79907227 C30.41246771 30.89028128 26.47041125 30.96654125 22.52788544 31.03244972 C21.02389494 31.06021851 19.51999387 31.09337033 18.01624298 31.13199425 C15.90957549 31.18518384 13.80340213 31.21921015 11.69628906 31.2487793 C10.49715881 31.27320602 9.29802856 31.29763275 8.06256104 31.32279968 C4.70218571 30.96860981 3.33519679 30.40859625 1 28 C0.45410156 25.08911133 0.45410156 25.08911133 0.390625 21.58203125 C0.35839844 20.32841797 0.32617188 19.07480469 0.29296875 17.78320312 C0.27169922 15.81770508 0.27169922 15.81770508 0.25 13.8125 C0.22184019 12.47717464 0.19191271 11.1418853 0.16015625 9.80664062 C0.08934884 6.53769851 0.03670367 3.26947421 0 0 Z " fill="#D5BBFD" transform="translate(223,264)"/>
<path d="M0 0 C2 2 2 2 2.23377991 4.01567078 C2.22632248 4.84283096 2.21886505 5.66999115 2.21118164 6.5222168 C2.20780289 7.46046799 2.20442413 8.39871918 2.20094299 9.36540222 C2.18748337 10.38306168 2.17402374 11.40072113 2.16015625 12.44921875 C2.15495468 13.4951973 2.14975311 14.54117584 2.14439392 15.61885071 C2.12653423 18.97520614 2.09538783 22.33126072 2.0625 25.6875 C2.03482274 29.02585836 2.01007894 32.36417023 1.99131775 35.70259094 C1.9791324 37.78172258 1.96160023 39.86083168 1.93800354 41.93986511 C1.90280735 47.08119592 2.10034208 51.934851 3 57 C3.66 57 4.32 57 5 57 C5 59.31 5 61.62 5 64 C3.515 64.495 3.515 64.495 2 65 C0.21177031 61.15386408 -0.24485088 58.15208344 -0.22705078 53.92456055 C-0.22689972 52.72369308 -0.22674866 51.52282562 -0.22659302 50.28556824 C-0.21627045 48.99894791 -0.20594788 47.71232758 -0.1953125 46.38671875 C-0.19157912 45.04865226 -0.18873368 43.71058303 -0.18673706 42.37251282 C-0.17912616 38.86258301 -0.15949982 35.35282055 -0.1373291 31.84295654 C-0.11681564 28.25665551 -0.10772362 24.67032726 -0.09765625 21.08398438 C-0.07625129 14.05592115 -0.04214631 7.02796862 0 0 Z " fill="#774DDC" transform="translate(158,237)"/>
<path d="M0 0 C3.40062914 0.42507864 5.91175301 1.43098463 8.875 3.0625 C12.83149808 5.14605507 15.57712922 5.36857257 20 5 C20 5.99 20 6.98 20 8 C25.34437252 9.48454792 30.35987302 10.31330483 35.8984375 10.65625 C38 11 38 11 40 13 C25.1725508 13.85652787 13.27690041 10.94534838 1 2 C0.67 1.34 0.34 0.68 0 0 Z " fill="#A586E5" transform="translate(182,331)"/>
<path d="M0 0 C2.84785089 2.71840312 4.81663553 5.7249533 7 9 C9.37652581 11.60651217 10.61113222 12.87037741 14 14 C14 15.65 14 17.3 14 19 C14.66 19.33 15.32 19.66 16 20 C16.67441131 21.6635479 17.3400321 23.33066942 18 25 C18.95824253 26.36365283 19.94721175 27.70794169 21 29 C14.65094855 26.23027957 8.93881985 20.24499217 6 14 C6 13.34 6 12.68 6 12 C5.34 12 4.68 12 4 12 C3.32332002 10.75539217 2.65905281 9.50403104 2 8.25 C1.62875 7.55390625 1.2575 6.8578125 0.875 6.140625 C0 4 0 4 0 0 Z " fill="#B598E8" transform="translate(161,302)"/>
<path d="M0 0 C2.00720923 0.28674418 4.0085944 0.61866701 6 1 C6.33 2.65 6.66 4.3 7 6 C9.64 6.66 12.28 7.32 15 8 C14.67 9.65 14.34 11.3 14 13 C9.06171349 12.05032952 5.11859263 10.20928932 1.6875 6.5 C0 4 0 4 -1 1 C-0.67 0.67 -0.34 0.34 0 0 Z " fill="#834FEB" transform="translate(177,321)"/>
<path d="M0 0 C5.27749285 0.53851968 9.25645564 1.77343836 14 4 C14 4.66 14 5.32 14 6 C14.66 6 15.32 6 16 6 C16 6.66 16 7.32 16 8 C15.38125 7.835 14.7625 7.67 14.125 7.5 C11.08506004 6.78472001 8.4554907 7.14794392 5.375 7.5 C4.14910156 7.63921875 4.14910156 7.63921875 2.8984375 7.78125 C2.27195312 7.8534375 1.64546875 7.925625 1 8 C1.18433594 7.38640625 1.36867188 6.7728125 1.55859375 6.140625 C2.11922283 3.42182204 1.40936788 2.3213118 0 0 Z " fill="#5227E6" transform="translate(367,87)"/>
<path d="M0 0 C2.50764239 3.86423582 2.5297123 8.0345461 2.75 12.5 C2.8113916 13.69798218 2.8113916 13.69798218 2.87402344 14.92016602 C3.50600892 31.11560854 3.50600892 31.11560854 -0.578125 35.81640625 C-1.28195312 36.40228516 -1.28195312 36.40228516 -2 37 C-3.36236243 33.25575888 -2.57716027 30.7210554 -1.5625 26.9375 C0.52214629 17.9640453 0.2637765 9.1637909 0 0 Z " fill="#8E72D9" transform="translate(365,202)"/>
<path d="M0 0 C0.98120464 3.05263664 0.98120464 4.94736336 0 8 C0.33 8 0.66 8 1 8 C1.042721 9.66611905 1.04063832 11.33382885 1 13 C0.67 13.33 0.34 13.66 0 14 C-0.15655027 15.48638992 -0.25066943 16.97949127 -0.31640625 18.47265625 C-0.35830078 19.37177734 -0.40019531 20.27089844 -0.44335938 21.19726562 C-0.48267578 22.14279297 -0.52199219 23.08832031 -0.5625 24.0625 C-0.60568359 25.01189453 -0.64886719 25.96128906 -0.69335938 26.93945312 C-0.79979276 29.29281353 -0.90181008 31.64628354 -1 34 C-1.66 34 -2.32 34 -3 34 C-3.48918156 6.97836312 -3.48918156 6.97836312 0 0 Z " fill="#9375D9" transform="translate(160,126)"/>
<path d="M0 0 C0.33 0.99 0.66 1.98 1 3 C2.65 2.67 4.3 2.34 6 2 C6 3.98 6 5.96 6 8 C5.34 7.34 4.68 6.68 4 6 C3.34 7.65 2.68 9.3 2 11 C1.21625 10.79375 0.4325 10.5875 -0.375 10.375 C-1.24125 10.25125 -2.1075 10.1275 -3 10 C-3.66 10.66 -4.32 11.32 -5 12 C-4.42365861 7.24518354 -2.44931479 4.02951788 0 0 Z " fill="#8560E5" transform="translate(166,114)"/>
<path d="M0 0 C1.67013418 0.65793165 3.3357865 1.32723284 5 2 C6.7325 2.61875 6.7325 2.61875 8.5 3.25 C13.08631381 5.54315691 15.97426294 8.23840023 17.8125 13.1875 C18 15 18 15 18 18 C16.5 16.625 16.5 16.625 15 15 C15 14.34 15 13.68 15 13 C14.01 12.67 13.02 12.34 12 12 C11.443125 11.278125 10.88625 10.55625 10.3125 9.8125 C7.71929974 6.65860779 4.92261346 4.58024457 1.609375 2.234375 C1.07828125 1.82703125 0.5471875 1.4196875 0 1 C0 0.67 0 0.34 0 0 Z " fill="#A993E7" transform="translate(331,149)"/>
<path d="M0 0 C0.99 0.33 1.98 0.66 3 1 C3 1.66 3 2.32 3 3 C3.99 3.33 4.98 3.66 6 4 C6.6875 6.0625 6.6875 6.0625 7 8 C6.07767578 7.85691406 6.07767578 7.85691406 5.13671875 7.7109375 C3.92435547 7.54464844 3.92435547 7.54464844 2.6875 7.375 C1.88699219 7.25898437 1.08648437 7.14296875 0.26171875 7.0234375 C-2.28723215 6.78466593 -2.28723215 6.78466593 -5 9 C-5.33 7.35 -5.66 5.7 -6 4 C-4.7934375 3.566875 -4.7934375 3.566875 -3.5625 3.125 C-0.8673532 2.26737432 -0.8673532 2.26737432 0 0 Z " fill="#5128DD" transform="translate(390,97)"/>
<path d="M0 0 C3 4 3 4 3 7 C3.99 7.33 4.98 7.66 6 8 C6.33 12.95 6.66 17.9 7 23 C5 21 5 21 4.875 17.875 C4.91625 16.92625 4.9575 15.9775 5 15 C4.01 15 3.02 15 2 15 C2 13.68 2 12.36 2 11 C1.01 11.495 1.01 11.495 0 12 C0 8.04 0 4.08 0 0 Z " fill="#522ADD" transform="translate(408,120)"/>
<path d="M0 0 C0.99 0.66 1.98 1.32 3 2 C2.75 4.3125 2.75 4.3125 2 7 C1.319375 7.45375 0.63875 7.9075 -0.0625 8.375 C-0.701875 8.91125 -1.34125 9.4475 -2 10 C-2.33380814 13.62563814 -2.33380814 13.62563814 -2 17 C-2.598125 16.773125 -3.19625 16.54625 -3.8125 16.3125 C-4.534375 16.209375 -5.25625 16.10625 -6 16 C-7.77190909 17.35444301 -7.77190909 17.35444301 -9 19 C-7.39369175 14.75707468 -5.4231838 10.72974893 -3.375 6.6875 C-3.05015625 6.04232422 -2.7253125 5.39714844 -2.390625 4.73242188 C-1.59558044 3.15402459 -0.79804366 1.57688306 0 0 Z " fill="#987DE4" transform="translate(361,240)"/>
<path d="M0 0 C0.33 0 0.66 0 1 0 C0.97679687 1.00417969 0.95359375 2.00835937 0.9296875 3.04296875 C0.8052701 10.95416594 1.11784592 18.41529147 2.5625 26.23046875 C2.98021834 28.874775 3.07813608 31.32872281 3 34 C2.33333333 32.66666667 1.66666667 31.33333333 1 30 C0.65155029 29.40324463 0.30310059 28.80648926 -0.0559082 28.19165039 C-1.19764143 25.54118772 -1.24328576 23.56440578 -1.23046875 20.68359375 C-1.22853516 19.67232422 -1.22660156 18.66105469 -1.22460938 17.61914062 C-1.21236328 16.56919922 -1.20011719 15.51925781 -1.1875 14.4375 C-1.18685547 13.38369141 -1.18621094 12.32988281 -1.18554688 11.24414062 C-1.14061993 3.42185978 -1.14061993 3.42185978 0 0 Z " fill="#A88DDF" transform="translate(208,202)"/>
<path d="M0 0 C-1.08667969 0.67095703 -1.08667969 0.67095703 -2.1953125 1.35546875 C-7.4321122 4.63021416 -12.38824804 7.88681582 -17 12 C-17.66 11.67 -18.32 11.34 -19 11 C-17.10708163 7.49810101 -15.48889789 5.00875939 -12 3 C-10.68 3 -9.36 3 -8 3 C-8.33 2.01 -8.66 1.02 -9 0 C-2.25 -1.125 -2.25 -1.125 0 0 Z " fill="#A48DDE" transform="translate(253,144)"/>
<path d="M0 0 C4.1996892 0.5999556 8.00476643 1.57947251 12 3 C12.99 3.33 13.98 3.66 15 4 C15.144375 4.78375 15.28875 5.5675 15.4375 6.375 C15.87798925 8.96421018 15.87798925 8.96421018 17 11 C12.80591769 9.5137853 9.37332677 7.41721984 5.6875 4.9375 C4.61886719 4.22464844 3.55023438 3.51179687 2.44921875 2.77734375 C1.64097656 2.19082031 0.83273437 1.60429687 0 1 C0 0.67 0 0.34 0 0 Z " fill="#5C37D0" transform="translate(322,142)"/>
<path d="M0 0 C3.46023462 0.44467089 6.91770835 0.90804113 10.375 1.375 C11.85226563 1.56449219 11.85226563 1.56449219 13.359375 1.7578125 C14.30039063 1.88671875 15.24140625 2.015625 16.2109375 2.1484375 C17.51490479 2.32125244 17.51490479 2.32125244 18.84521484 2.49755859 C21 3 21 3 23 5 C20.45767658 5.08152344 17.91800798 5.14073716 15.375 5.1875 C14.30572266 5.22520508 14.30572266 5.22520508 13.21484375 5.26367188 C8.40131308 5.32991312 5.17768494 4.65443674 1 2 C0.67 1.34 0.34 0.68 0 0 Z " fill="#9A78DD" transform="translate(199,339)"/>
<path d="M0 0 C3.70951453 3.70951453 5.09691727 9.16909769 7 14 C5.68 14 4.36 14 3 14 C2.67 11.69 2.34 9.38 2 7 C1.34 7 0.68 7 0 7 C0.33 8.32 0.66 9.64 1 11 C0.01 10.67 -0.98 10.34 -2 10 C-1.125 2.25 -1.125 2.25 0 0 Z " fill="#7847EF" transform="translate(211,243)"/>
<path d="M0 0 C1.88624671 3.21654702 2.29047742 5.71432261 2.4140625 9.421875 C2.45273438 10.44667969 2.49140625 11.47148437 2.53125 12.52734375 C2.57765625 14.12255859 2.57765625 14.12255859 2.625 15.75 C2.66367188 16.82894531 2.70234375 17.90789062 2.7421875 19.01953125 C2.83634631 21.67951775 2.92197387 24.3394994 3 27 C3.99 27.33 4.98 27.66 6 28 C5.67 28.99 5.34 29.98 5 31 C3.03808594 29.90112305 3.03808594 29.90112305 1 28 C0.45410156 25.08911133 0.45410156 25.08911133 0.390625 21.58203125 C0.35839844 20.32841797 0.32617188 19.07480469 0.29296875 17.78320312 C0.27169922 15.81770508 0.27169922 15.81770508 0.25 13.8125 C0.22184019 12.47717464 0.19191271 11.1418853 0.16015625 9.80664062 C0.08934884 6.53769851 0.03670367 3.26947421 0 0 Z " fill="#BBA7EA" transform="translate(223,264)"/>
<path d="M0 0 C0.79277344 0.05671875 1.58554687 0.1134375 2.40234375 0.171875 C4.35231735 0.31283695 6.30128671 0.4675712 8.25 0.625 C8.25 0.955 8.25 1.285 8.25 1.625 C7.04601562 1.67398438 5.84203125 1.72296875 4.6015625 1.7734375 C3.02601802 1.84846343 1.45049834 1.92401133 -0.125 2 C-0.9190625 2.0309375 -1.713125 2.061875 -2.53125 2.09375 C-7.11667375 2.14316421 -7.11667375 2.14316421 -10.75 4.625 C-15.29426055 6.07130689 -19.97525174 6.93304827 -24.75 6.625 C-22.10512395 4.8617493 -20.28255516 4.04656855 -17.3125 3.125 C-14.027559 2.1108784 -14.027559 2.1108784 -11.01171875 0.5078125 C-7.38030218 -0.90963162 -3.8313585 -0.31769142 0 0 Z " fill="#9072E2" transform="translate(287.75,132.375)"/>
<path d="M0 0 C1.32 0 2.64 0 4 0 C4 1.65 4 3.3 4 5 C4.66 5.33 5.32 5.66 6 6 C6.67441131 7.6635479 7.3400321 9.33066942 8 11 C8.95824253 12.36365283 9.94721175 13.70794169 11 15 C4.3791962 12.16251266 1.8593645 7.26626688 -1 1 C-0.67 0.67 -0.34 0.34 0 0 Z " fill="#9C76E7" transform="translate(171,316)"/>
<path d="M0 0 C1.4606285 2.64738916 2 3.89448334 2 7 C2.66 7 3.32 7 4 7 C4 9.31 4 11.62 4 14 C3.01 14.33 2.02 14.66 1 15 C-1.44723163 9.95258476 -1.77882289 5.33646866 0 0 Z " fill="#8357E6" transform="translate(159,287)"/>
<path d="M0 0 C4.29 0.33 8.58 0.66 13 1 C12.67 1.99 12.34 2.98 12 4 C14.64 5.65 17.28 7.3 20 9 C19.01 9.495 19.01 9.495 18 10 C15.26349329 8.80572714 12.64761917 7.55528228 10 6.1875 C9.26265625 5.81818359 8.5253125 5.44886719 7.765625 5.06835938 C2.28101809 2.28101809 2.28101809 2.28101809 0 0 Z " fill="#BAA4ED" transform="translate(311,139)"/>
<path d="M0 0 C0 0.66 0 1.32 0 2 C0.66 2.66 1.32 3.32 2 4 C-3.445 6.475 -3.445 6.475 -9 9 C-9 8.34 -9 7.68 -9 7 C-8.34 7 -7.68 7 -7 7 C-5.98888907 3.95086772 -5.98888907 3.95086772 -7 1 C-4.53721199 -0.231394 -2.7204945 -0.07159196 0 0 Z " fill="#633BD8" transform="translate(257,136)"/>
<path d="M0 0 C2.65171248 2.37094293 4.1490052 4.83568087 5.75 8 C6.19859375 8.86625 6.6471875 9.7325 7.109375 10.625 C8 13 8 13 7 16 C4.44971017 14.72485508 4.06918289 13.59658703 3 11 C3 10.01 3 9.02 3 8 C2.01 7.67 1.02 7.34 0 7 C0 4.69 0 2.38 0 0 Z " fill="#957DDD" transform="translate(406,112)"/>
<path d="M0 0 C0.66 0.33 1.32 0.66 2 1 C1.09066991 2.27609323 0.17217147 3.54565553 -0.75 4.8125 C-1.26046875 5.52019531 -1.7709375 6.22789062 -2.296875 6.95703125 C-5.44605642 10.73460437 -8.13083923 12.32372767 -13 13 C-8.375 8.125 -8.375 8.125 -5 7 C-4.67 6.01 -4.34 5.02 -4 4 C-2.70644173 2.62804426 -1.37701298 1.28817344 0 0 Z " fill="#A08BDC" transform="translate(344,267)"/>
<path d="M0 0 C0.86625 0.2784375 0.86625 0.2784375 1.75 0.5625 C4.20692525 1.04023546 5.64397534 0.75729364 8 0 C7.34 1.65 6.68 3.3 6 5 C6.66 5 7.32 5 8 5 C8.66 7.64 9.32 10.28 10 13 C7.4000702 10.48972295 5.00908773 8.0136316 3 5 C3 4.34 3 3.68 3 3 C2.01 2.67 1.02 2.34 0 2 C0 1.34 0 0.68 0 0 Z " fill="#5E32EA" transform="translate(343,154)"/>
<path d="M0 0 C3.86038436 2.08906965 6.46552611 4.35798817 9.3125 7.6875 C10.00988281 8.49574219 10.70726562 9.30398437 11.42578125 10.13671875 C12.20501953 11.05904297 12.20501953 11.05904297 13 12 C12.67 12.66 12.34 13.32 12 14 C11.0925 13.21625 10.185 12.4325 9.25 11.625 C6.94809764 9.69947504 4.78422793 8.17794259 2 7 C2 5.68 2 4.36 2 3 C1.34 2.67 0.68 2.34 0 2 C0 1.34 0 0.68 0 0 Z " fill="#A691E3" transform="translate(393,98)"/>
<path d="M0 0 C-0.51922452 4.00160965 -2.35293388 5.52455127 -5.375 8.0625 C-8.01292999 10.30087382 -10.59556876 12.51025024 -13 15 C-11.49138768 10.02157935 -8.4737453 6.73007765 -5 3 C-4.22462891 2.15308594 -4.22462891 2.15308594 -3.43359375 1.2890625 C-2 0 -2 0 0 0 Z " fill="#B9A5E8" transform="translate(180,99)"/>
<path d="M0 0 C5.27749285 0.53851968 9.25645564 1.77343836 14 4 C14 4.66 14 5.32 14 6 C14.66 6 15.32 6 16 6 C16 6.66 16 7.32 16 8 C14.0625 7.6875 14.0625 7.6875 12 7 C11.67 6.01 11.34 5.02 11 4 C9.35 4 7.7 4 6 4 C6 3.34 6 2.68 6 2 C4.02 2 2.04 2 0 2 C0 1.34 0 0.68 0 0 Z " fill="#512EC9" transform="translate(367,87)"/>
<path d="M0 0 C-0.5625 1.9375 -0.5625 1.9375 -2 4 C-5.625 4.75 -5.625 4.75 -9 5 C-9 4.34 -9 3.68 -9 3 C-9.66 3 -10.32 3 -11 3 C-11 2.34 -11 1.68 -11 1 C-7.27569643 0.30710631 -3.78916254 -0.11144596 0 0 Z " fill="#9677E2" transform="translate(307,291)"/>
<path d="M0 0 C0 3.53930317 -0.69007988 4.27338729 -2.8125 7 C-3.33457031 7.680625 -3.85664063 8.36125 -4.39453125 9.0625 C-5.84895185 10.81771318 -7.35760525 12.42172276 -9 14 C-8.6875 11.125 -8.6875 11.125 -8 8 C-7.01 7.34 -6.02 6.68 -5 6 C-5.66 5.01 -6.32 4.02 -7 3 C-5.5459375 2.5359375 -5.5459375 2.5359375 -4.0625 2.0625 C-1.15934208 1.30476658 -1.15934208 1.30476658 0 0 Z " fill="#B8A0EE" transform="translate(227,162)"/>
<path d="M0 0 C4.19360449 0.67097672 7.40334352 2.8558394 11 5 C11 5.99 11 6.98 11 8 C9.02 7.34 7.04 6.68 5 6 C5 5.34 5 4.68 5 4 C4.34 4 3.68 4 3 4 C3 3.34 3 2.68 3 2 C2.01 1.67 1.02 1.34 0 1 C0 0.67 0 0.34 0 0 Z " fill="#977FDD" transform="translate(378,89)"/>
<path d="M0 0 C0.66 1.32 1.32 2.64 2 4 C3.65 3.67 5.3 3.34 7 3 C6.67 6.3 6.34 9.6 6 13 C5.34 11.68 4.68 10.36 4 9 C3.484375 8.54625 2.96875 8.0925 2.4375 7.625 C0.37721065 5.29597725 0.3360683 3.02461466 0 0 Z " fill="#7F52E0" transform="translate(161,299)"/>
<path d="M0 0 C5.66153846 1.47692308 5.66153846 1.47692308 7.375 4.125 C7.58125 4.74375 7.7875 5.3625 8 6 C6.25 6.75 6.25 6.75 4 7 C1.75 5.25 1.75 5.25 0 3 C0 2.01 0 1.02 0 0 Z " fill="#5227E5" transform="translate(394,105)"/>
<path d="M0 0 C0 3.57870074 -0.64872567 4.39680342 -3 7 C-3.639375 7.309375 -4.27875 7.61875 -4.9375 7.9375 C-7.74617173 9.3843915 -9.14801157 11.48658713 -11 14 C-9.97296066 8.36984457 -5.94037593 4.58293826 -1.625 1.0625 C-1.08875 0.711875 -0.5525 0.36125 0 0 Z " fill="#653FD1" transform="translate(178,103)"/>
<path d="M0 0 C1.98 0.99 1.98 0.99 4 2 C3.6596875 2.86625 3.6596875 2.86625 3.3125 3.75 C2.73494807 6.12172477 2.73494807 6.12172477 4.4375 8.25 C4.953125 8.8275 5.46875 9.405 6 10 C5.67 10.66 5.34 11.32 5 12 C0.07692308 6.83076923 0.07692308 6.83076923 -0.3125 2.625 C-0.209375 1.75875 -0.10625 0.8925 0 0 Z " fill="#AD8DED" transform="translate(168,312)"/>
<path d="M0 0 C3 2 3 2 3.73046875 4.1640625 C3.88128906 4.97617187 4.03210938 5.78828125 4.1875 6.625 C4.34605469 7.44226563 4.50460938 8.25953125 4.66796875 9.1015625 C4.83232422 10.04128906 4.83232422 10.04128906 5 11 C4.01 10.34 3.02 9.68 2 9 C2 8.34 2 7.68 2 7 C1.34 7 0.68 7 0 7 C0 4.69 0 2.38 0 0 Z " fill="#AB8EE5" transform="translate(218,253)"/>
<path d="M0 0 C0.86408912 3.1120202 1.09531738 4.91319647 0 8 C-0.99 9.485 -0.99 9.485 -2 11 C-2.68177416 12.32567199 -3.35191436 13.65753688 -4 15 C-4.59720137 9.17728663 -2.528243 5.0790596 0 0 Z " fill="#6846CA" transform="translate(163,123)"/>
<path d="M0 0 C-2.55022856 2.97526665 -5.40293526 4.50122302 -9 6 C-9.99 5.67 -10.98 5.34 -12 5 C-11.34 5 -10.68 5 -10 5 C-9.67 4.01 -9.34 3.02 -9 2 C-5.99208089 -0.04108797 -3.57804656 -0.19878036 0 0 Z " fill="#A98CE0" transform="translate(386,335)"/>
<path d="M0 0 C1.32 0 2.64 0 4 0 C2.64978174 4.41889613 0.73884332 6.34345343 -3 9 C-3.33 7.68 -3.66 6.36 -4 5 C-3.01 5 -2.02 5 -1 5 C-0.67 3.35 -0.34 1.7 0 0 Z " fill="#A88DE7" transform="translate(403,315)"/>
<path d="M0 0 C0.33 0 0.66 0 1 0 C1.24954005 1.43410368 1.47392642 2.87260072 1.6875 4.3125 C1.87892578 5.51326172 1.87892578 5.51326172 2.07421875 6.73828125 C2 9 2 9 0.51953125 10.79296875 C0.01808594 11.19128906 -0.48335938 11.58960938 -1 12 C-2.45606519 7.47907032 -1.27032841 4.48351204 0 0 Z " fill="#AA94E5" transform="translate(364,227)"/>
<path d="M0 0 C-1.36983503 3.16115776 -1.9890638 3.9927092 -5 6 C-5.66 4.02 -6.32 2.04 -7 0 C-4.3333581 -1.33332095 -2.83319697 -0.67102033 0 0 Z " fill="#8969DE" transform="translate(233,156)"/>
<path d="M0 0 C0.33 0.99 0.66 1.98 1 3 C2.65 2.67 4.3 2.34 6 2 C6 3.98 6 5.96 6 8 C5.4225 7.505 4.845 7.01 4.25 6.5 C1.89599371 4.63019987 1.89599371 4.63019987 -2 5 C-1.34 3.35 -0.68 1.7 0 0 Z " fill="#8D67F0" transform="translate(166,114)"/>
<path d="M0 0 C1 3 1 3 0.00390625 5.26171875 C-0.47175781 6.06222656 -0.94742187 6.86273438 -1.4375 7.6875 C-1.91058594 8.49574219 -2.38367188 9.30398438 -2.87109375 10.13671875 C-3.24363281 10.75160156 -3.61617188 11.36648438 -4 12 C-4.33 12 -4.66 12 -5 12 C-5.20086443 8.28400809 -5.1519437 7.22791555 -3 4 C-2.34 4 -1.68 4 -1 4 C-0.67 2.68 -0.34 1.36 0 0 Z " fill="#B197E4" transform="translate(412,303)"/>
<path d="M0 0 C0.66 0.33 1.32 0.66 2 1 C1 3 1 3 -2.0625 4.125 C-3.5165625 4.558125 -3.5165625 4.558125 -5 5 C-5 5.66 -5 6.32 -5 7 C-6.65 7 -8.3 7 -10 7 C-7.20283196 3.70921407 -3.80471422 1.93694542 0 0 Z " fill="#B29EE6" transform="translate(329,280)"/>
<path d="M0 0 C-0.33 0.99 -0.66 1.98 -1 3 C-4.63 3.33 -8.26 3.66 -12 4 C-7.82050327 1.21366885 -5.06624674 0 0 0 Z " fill="#AA93E2" transform="translate(319,287)"/>
<path d="M0 0 C0.99 0 1.98 0 3 0 C3 1.32 3 2.64 3 4 C3.66 4.33 4.32 4.66 5 5 C5 6.98 5 8.96 5 11 C2.56097476 8.56097476 1.40821408 6.13647681 0 3 C0 2.01 0 1.02 0 0 Z " fill="#B19DE7" transform="translate(356,176)"/>
<path d="M0 0 C-0.99 0 -1.98 0 -3 0 C-3.33 0.99 -3.66 1.98 -4 3 C-6.64 3 -9.28 3 -12 3 C-4.82142857 -1.78571429 -4.82142857 -1.78571429 0 0 Z " fill="#A992E0" transform="translate(206,87)"/>
<path d="M0 0 C2.97 0 5.94 0 9 0 C6.60236815 2.39763185 5.66726502 2.34280586 2.375 2.625 C1.55773437 2.69976562 0.74046875 2.77453125 -0.1015625 2.8515625 C-0.72804688 2.90054687 -1.35453125 2.94953125 -2 3 C-1.34 2.67 -0.68 2.34 0 2 C0 1.34 0 0.68 0 0 Z " fill="#AF9AE9" transform="translate(364,341)"/>
<path d="M0 0 C-1.28524261 0.86380259 -2.57842419 1.71580369 -3.875 2.5625 C-4.59429687 3.03816406 -5.31359375 3.51382813 -6.0546875 4.00390625 C-6.69664062 4.33261719 -7.33859375 4.66132813 -8 5 C-8.66 4.67 -9.32 4.34 -10 4 C-9.67 2.68 -9.34 1.36 -9 0 C-2.25 -1.125 -2.25 -1.125 0 0 Z " fill="#B4A2EA" transform="translate(253,144)"/>
<path d="M0 0 C2.97 0.495 2.97 0.495 6 1 C6.33 1.99 6.66 2.98 7 4 C6.01 4.33 5.02 4.66 4 5 C4 4.34 4 3.68 4 3 C2.02 3 0.04 3 -2 3 C-1.34 2.67 -0.68 2.34 0 2 C0 1.34 0 0.68 0 0 Z " fill="#5D2FEC" transform="translate(320,137)"/>
<path d="M0 0 C1.32 0.33 2.64 0.66 4 1 C4.33 2.32 4.66 3.64 5 5 C2.36 4.67 -0.28 4.34 -3 4 C-2.01 3.67 -1.02 3.34 0 3 C0 2.01 0 1.02 0 0 Z " fill="#854FF4" transform="translate(209,337)"/>
<path d="M0 0 C2.97 0.495 2.97 0.495 6 1 C5.67 1.99 5.34 2.98 5 4 C3.35 3.67 1.7 3.34 0 3 C0 2.01 0 1.02 0 0 Z " fill="#874EF6" transform="translate(177,321)"/>
<path d="M0 0 C3 2 3 2 3.8125 3.9375 C4 6 4 6 2 9 C0.50178941 5.62902617 0 3.79557881 0 0 Z " fill="#BC9FE8" transform="translate(158,293)"/>
<path d="M0 0 C-1.125 1.5625 -1.125 1.5625 -3 3 C-6.1875 2.6875 -6.1875 2.6875 -9 2 C-5.96271914 -1.03728086 -4.06215635 -1.35405212 0 0 Z " fill="#6A44D3" transform="translate(314,291)"/>
<path d="M0 0 C0.66 0.33 1.32 0.66 2 1 C0.1875 4 0.1875 4 -2 7 C-2.99 7 -3.98 7 -5 7 C-3.88820837 3.66462511 -2.52588702 2.36292656 0 0 Z " fill="#C3AFEB" transform="translate(344,267)"/>
<path d="M0 0 C3 1.6875 3 1.6875 6 4 C6.375 6.75 6.375 6.75 6 9 C3.72494996 6.83328568 1.76424908 4.60436769 0 2 C0 1.34 0 0.68 0 0 Z " fill="#C0B2EC" transform="translate(350,167)"/>
<path d="M0 0 C1.32 0.66 2.64 1.32 4 2 C0.375 5 0.375 5 -3 5 C-3 4.01 -3 3.02 -3 2 C-2.01 2 -1.02 2 0 2 C0 1.34 0 0.68 0 0 Z " fill="#7B5BE3" transform="translate(389,95)"/>
<path d="" fill="#FFFFFF" transform="translate(0,0)"/>
<path d="" fill="#FFFFFF" transform="translate(0,0)"/>
<path d="" fill="#FFFFFF" transform="translate(0,0)"/>
<path d="" fill="#FFFFFF" transform="translate(0,0)"/>
<path d="" fill="#FFFFFF" transform="translate(0,0)"/>
<path d="" fill="#FFFFFF" transform="translate(0,0)"/>
<path d="" fill="#FFFFFF" transform="translate(0,0)"/>
<path d="" fill="#FFFFFF" transform="translate(0,0)"/>
<path d="" fill="#FFFFFF" transform="translate(0,0)"/>
<path d="" fill="#FFFFFF" transform="translate(0,0)"/>
<path d="" fill="#FFFFFF" transform="translate(0,0)"/>
<path d="" fill="#FFFFFF" transform="translate(0,0)"/>
<path d="" fill="#FFFFFF" transform="translate(0,0)"/>
<path d="" fill="#FFFFFF" transform="translate(0,0)"/>
<path d="" fill="#FFFFFF" transform="translate(0,0)"/>
<path d="" fill="#FFFFFF" transform="translate(0,0)"/>
<path d="" fill="#FFFFFF" transform="translate(0,0)"/>
<path d="" fill="#FFFFFF" transform="translate(0,0)"/>
<path d="" fill="#FFFFFF" transform="translate(0,0)"/>
<path d="" fill="#FFFFFF" transform="translate(0,0)"/>
<path d="" fill="#FFFFFF" transform="translate(0,0)"/>
<path d="" fill="#FFFFFF" transform="translate(0,0)"/>
<path d="" fill="#FFFFFF" transform="translate(0,0)"/>
<path d="" fill="#FFFFFF" transform="translate(0,0)"/>
<path d="" fill="#FFFFFF" transform="translate(0,0)"/>
<path d="" fill="#FFFFFF" transform="translate(0,0)"/>
<path d="" fill="#FFFFFF" transform="translate(0,0)"/>
<path d="" fill="#FFFFFF" transform="translate(0,0)"/>
<path d="" fill="#FFFFFF" transform="translate(0,0)"/>
<path d="" fill="#FFFFFF" transform="translate(0,0)"/>
<path d="" fill="#FFFFFF" transform="translate(0,0)"/>
<path d="" fill="#FFFFFF" transform="translate(0,0)"/>
<path d="" fill="#FFFFFF" transform="translate(0,0)"/>
<path d="" fill="#FFFFFF" transform="translate(0,0)"/>
<path d="" fill="#FFFFFF" transform="translate(0,0)"/>
<path d="" fill="#FFFFFF" transform="translate(0,0)"/>
<path d="" fill="#FFFFFF" transform="translate(0,0)"/>
<path d="" fill="#FFFFFF" transform="translate(0,0)"/>
<path d="" fill="#FFFFFF" transform="translate(0,0)"/>
<path d="" fill="#FFFFFF" transform="translate(0,0)"/>
<path d="" fill="#FFFFFF" transform="translate(0,0)"/>
<path d="" fill="#FFFFFF" transform="translate(0,0)"/>
<path d="" fill="#FFFFFF" transform="translate(0,0)"/>
<path d="" fill="#FFFFFF" transform="translate(0,0)"/>
<path d="" fill="#FFFFFF" transform="translate(0,0)"/>
<path d="" fill="#FFFFFF" transform="translate(0,0)"/>
<path d="" fill="#FFFFFF" transform="translate(0,0)"/>
<path d="" fill="#FFFFFF" transform="translate(0,0)"/>
<path d="" fill="#FFFFFF" transform="translate(0,0)"/>
<path d="" fill="#FFFFFF" transform="translate(0,0)"/>
<path d="" fill="#FFFFFF" transform="translate(0,0)"/>
<path d="" fill="#FFFFFF" transform="translate(0,0)"/>
<path d="" fill="#FFFFFF" transform="translate(0,0)"/>
<path d="" fill="#FFFFFF" transform="translate(0,0)"/>
<path d="" fill="#FFFFFF" transform="translate(0,0)"/>
<path d="" fill="#FFFFFF" transform="translate(0,0)"/>
<path d="" fill="#FFFFFF" transform="translate(0,0)"/>
<path d="" fill="#FFFFFF" transform="translate(0,0)"/>
<path d="" fill="#FFFFFF" transform="translate(0,0)"/>
<path d="" fill="#FFFFFF" transform="translate(0,0)"/>
<path d="" fill="#FFFFFF" transform="translate(0,0)"/>
<path d="" fill="#FFFFFF" transform="translate(0,0)"/>
<path d="" fill="#FFFFFF" transform="translate(0,0)"/>
<path d="" fill="#FFFFFF" transform="translate(0,0)"/>
<path d="" fill="#FFFFFF" transform="translate(0,0)"/>
<path d="" fill="#FFFFFF" transform="translate(0,0)"/>
<path d="" fill="#FFFFFF" transform="translate(0,0)"/>
<path d="" fill="#FFFFFF" transform="translate(0,0)"/>
<path d="" fill="#FFFFFF" transform="translate(0,0)"/>
<path d="" fill="#FFFFFF" transform="translate(0,0)"/>
<path d="" fill="#FFFFFF" transform="translate(0,0)"/>
<path d="" fill="#FFFFFF" transform="translate(0,0)"/>
<path d="" fill="#FFFFFF" transform="translate(0,0)"/>
<path d="" fill="#FFFFFF" transform="translate(0,0)"/>
<path d="" fill="#FFFFFF" transform="translate(0,0)"/>
<path d="" fill="#FFFFFF" transform="translate(0,0)"/>
</svg>
